<svg width="40" height="40" xmlns="http://www.w3.org/2000/svg">

 <g>
  <title>background</title>
  <rect fill="none" id="canvas_background" height="42" width="42" y="-1" x="-1"/>
 </g>
 <g>
  <title>Layer 1</title>
  <rect id="svg_8" height="38" width="38" y="1" x="1" stroke-width="1.5" fill="#FFCC4D"/>
  <path id="svg_1" d="m37,19c0,9.941 -8.059,18 -18,18c-9.94,0 -18,-8.059 -18,-18c0,-9.94 8.06,-18 18,-18c9.941,0 18,8.06 18,18" fill="#FFCC4D"/>
  <path id="svg_2" d="m16.457,16.815c-0.06,-0.135 -1.499,-3.297 -4.457,-3.297c-2.957,0 -4.397,3.162 -4.457,3.297c-0.092,0.207 -0.032,0.449 0.144,0.591c0.177,0.143 0.427,0.147 0.61,0.014c0.013,-0.009 1.262,-0.902 3.703,-0.902c2.426,0 3.674,0.881 3.702,0.901c0.088,0.066 0.193,0.099 0.298,0.099c0.11,0 0.221,-0.037 0.311,-0.109c0.179,-0.142 0.238,-0.386 0.146,-0.594z" fill="#66471B"/>
  <path id="svg_3" d="m32,14.5c0,3.59 -2.91,6.5 -6.5,6.5s-6.5,-2.91 -6.5,-6.5s2.91,-6.5 6.5,-6.5s6.5,2.91 6.5,6.5z" fill="#F5F8FA"/>
  <circle id="svg_4" r="2.5" cy="14.5" cx="25.5" fill="#292F33"/>
  <path id="svg_5" d="m8,22.262c0,3.964 4.596,9 11,9s11,-5 11,-9c0,0 -10.333,2.756 -22,0z" fill="#66471B"/>
  <path id="svg_6" d="m19.545,24.604l-1.091,-0.005c-3.216,-0.074 -5.454,-0.596 -5.454,-0.596l0,6.961c0,3 2,6 6,6s6,-3 6,-6l0,-6.92c-1.922,0.394 -3.787,0.542 -5.455,0.56z" fill="#E8596E"/>
  <path id="svg_7" d="m19,32.843c0.301,0 0.545,-0.244 0.545,-0.545l0,-7.694l-1.091,-0.005l0,7.699c0.001,0.301 0.245,0.545 0.546,0.545z" fill="#DD2F45"/>
 </g>
</svg>